<?xml version="1.0" standalone="no"?>
<!DOCTYPE svg PUBLIC "-//W3C//DTD SVG 20010904//EN"
 "http://www.w3.org/TR/2001/REC-SVG-20010904/DTD/svg10.dtd">
<svg version="1.0" xmlns="http://www.w3.org/2000/svg"
 width="480.000000pt" height="480.000000pt" viewBox="0 0 480.000000 480.000000"
 preserveAspectRatio="xMidYMid meet">
<metadata>
Created by potrace 1.16, written by Peter Selinger 2001-2019
</metadata>
<g transform="translate(0.000000,480.000000) scale(0.100000,-0.100000)"
fill="#000000" stroke="none">
<path d="M2584 4357 c-63 -37 -76 -55 -81 -115 -4 -46 -1 -67 15 -98 28 -55
100 -132 144 -155 45 -23 118 -25 162 -4 64 31 95 132 62 208 -14 34 -72 96
-125 135 -54 41 -135 54 -177 29z"/>
<path d="M3805 3974 c-110 -8 -205 -16 -212 -18 -13 -5 -103 -174 -103 -193 0
-16 35 -16 270 -2 105 7 190 17 196 23 14 13 84 174 84 193 0 7 -8 12 -17 12
-10 -1 -108 -8 -218 -15z"/>
<path d="M4072 3815 c-34 -69 -62 -130 -62 -135 0 -6 8 -10 18 -10 10 0 31
-13 47 -30 21 -22 32 -27 41 -19 7 6 45 15 84 20 90 13 105 4 156 -87 20 -36
43 -68 50 -71 7 -3 27 5 43 17 l30 21 -15 42 c-9 23 -23 58 -31 78 -23 56 -8
74 69 83 167 19 161 17 184 66 28 58 23 71 -23 58 -19 -5 -47 -7 -60 -3 -14 3
-108 1 -209 -6 -173 -11 -186 -11 -204 6 -13 12 -20 31 -20 57 0 30 -4 38 -18
38 -12 0 -35 -36 -80 -125z"/>
<path d="M2809 3885 c-2 -2 -29 -6 -59 -9 -30 -3 -64 -8 -75 -10 -11 -2 -45
-7 -75 -12 -30 -4 -57 -8 -60 -9 -3 -1 -18 -4 -35 -8 -16 -4 -39 -9 -51 -11
-140 -27 -307 -78 -469 -143 -33 -13 -69 -27 -80 -32 -11 -4 -81 -38 -155 -74
-220 -108 -387 -222 -510 -346 -93 -95 -125 -138 -205 -276 -35 -60 -81 -139
-103 -175 -62 -101 -85 -165 -80 -231 l4 -57 -23 15 c-20 14 -26 14 -46 0 -12
-8 -33 -35 -46 -59 -14 -29 -39 -55 -67 -73 -24 -15 -44 -33 -44 -39 0 -6 -9
-29 -21 -51 -20 -37 -20 -39 -3 -52 10 -7 21 -13 26 -13 19 0 6 -30 -22 -50
-31 -22 -50 -20 -50 6 0 22 -38 16 -52 -8 -7 -13 -13 -36 -13 -53 0 -21 -4
-29 -14 -27 -12 3 -12 0 -2 -12 7 -8 22 -16 34 -18 34 -5 56 -62 50 -126 -3
-35 -1 -52 6 -48 5 4 12 2 16 -4 11 -18 -49 -10 -73 10 -20 16 -21 22 -10 44
9 20 9 29 0 38 -7 7 -12 23 -12 36 0 20 -3 22 -14 13 -29 -24 -80 27 -69 69 4
15 2 21 -4 17 -6 -4 -13 0 -17 8 -3 8 -12 15 -19 15 -19 0 -47 32 -47 54 0 28
31 31 71 8 21 -12 40 -22 43 -22 7 0 -5 84 -16 108 -6 12 -19 22 -29 22 -10 0
-21 5 -24 10 -11 17 -32 11 -38 -11 -4 -16 -9 -19 -24 -11 -10 5 -24 7 -30 5
-22 -8 -14 36 8 47 25 14 20 35 -8 36 -11 1 -26 4 -32 8 -7 4 -19 2 -28 -6 -9
-7 -38 -13 -65 -13 -40 0 -48 3 -48 18 0 10 -4 15 -10 12 -5 -3 -10 -1 -10 6
0 8 -6 6 -18 -4 -10 -10 -29 -17 -41 -17 -20 0 -22 -4 -19 -52 l3 -53 49 -6
c30 -3 52 -11 58 -22 5 -9 20 -17 34 -17 17 0 27 -8 34 -24 5 -13 14 -27 20
-31 5 -3 8 -11 5 -16 -8 -12 -88 1 -97 15 -4 6 -20 11 -35 11 -15 1 -38 5 -51
9 l-23 8 2 -181 c1 -201 -4 -185 69 -193 51 -6 14 -87 -47 -104 l-23 -6 0
-704 c0 -682 1 -704 19 -704 23 0 40 20 50 57 6 22 16 30 46 37 35 8 41 6 59
-17 l21 -26 44 35 c25 19 56 37 70 41 14 3 32 11 40 17 11 8 15 8 18 -1 3 -7
13 -13 24 -13 10 0 19 -4 19 -10 0 -5 16 -12 35 -16 41 -7 43 -15 14 -56 -20
-27 -25 -30 -62 -24 -34 6 -38 4 -33 -10 5 -13 2 -15 -18 -10 -14 3 -28 2 -31
-4 -11 -18 -51 -10 -73 15 -35 41 -75 31 -92 -21 -9 -27 -23 -40 -61 -60 -30
-15 -58 -22 -70 -19 -15 5 -19 2 -19 -19 0 -16 6 -26 14 -26 26 0 29 -21 7
-51 -15 -20 -21 -43 -21 -79 l0 -50 50 0 c52 0 61 10 35 36 -24 25 -19 61 10
68 14 4 30 4 35 1 6 -4 10 1 10 10 0 8 6 18 14 21 8 3 13 13 12 22 -3 17 54
82 71 82 5 0 18 9 28 20 13 14 22 17 35 10 13 -7 20 -6 23 3 2 6 7 -3 11 -21
9 -38 25 -40 66 -10 16 12 32 19 36 16 3 -4 2 -27 -1 -51 -5 -33 -11 -44 -21
-40 -8 3 -14 0 -14 -6 0 -6 -7 -8 -15 -5 -8 4 -15 14 -15 23 0 31 -12 31 -49
1 -21 -16 -50 -32 -67 -36 -16 -4 -41 -16 -56 -26 -25 -17 -28 -25 -26 -69 2
-43 5 -49 25 -49 12 0 25 4 28 10 8 13 45 13 45 0 0 -5 20 -10 44 -10 42 0 43
1 38 28 -2 15 -8 32 -11 37 -12 18 -7 40 11 43 18 4 55 -54 38 -60 -5 -2 -7
-13 -4 -25 5 -19 13 -23 43 -22 30 0 32 2 15 9 -22 9 -26 47 -10 98 9 29 46
30 46 2 0 -12 7 -35 16 -51 12 -24 13 -34 3 -45 -10 -12 21 -14 226 -14 210 0
236 2 225 15 -7 8 -22 15 -34 15 -19 1 -19 2 -4 11 10 5 15 16 11 24 -3 9 -1
21 5 28 12 14 -10 77 -28 77 -5 0 -10 5 -10 11 0 9 -28 77 -37 88 -1 2 -8 -1
-15 -6 -21 -17 -58 3 -58 31 0 30 27 42 50 21 16 -14 18 -12 27 34 7 37 7 55
-3 73 -7 12 -13 30 -14 39 0 16 39 49 58 49 12 0 32 -46 32 -73 0 -12 7 -30
14 -39 14 -19 46 -24 46 -8 0 6 4 10 9 10 12 0 21 -39 10 -46 -5 -3 -9 -12 -9
-20 0 -11 8 -14 28 -12 19 2 27 8 26 21 -1 9 4 17 12 17 7 0 18 9 25 21 9 18
6 26 -25 58 -25 25 -35 43 -30 54 3 9 9 17 13 17 4 0 16 8 27 18 32 30 50 32
73 8 26 -27 26 -36 3 -36 -18 0 -46 -43 -35 -53 7 -8 53 14 53 25 0 4 8 8 18
8 22 0 72 -22 72 -32 0 -4 8 -4 18 -1 15 6 16 5 2 -13 -9 -10 -1 -7 18 9 19
15 43 29 55 31 81 17 75 10 80 94 1 20 5 39 8 42 4 3 10 30 14 60 6 53 5 56
-19 70 -20 10 -26 21 -25 44 0 17 3 25 6 19 2 -7 11 -13 18 -13 7 0 16 -6 19
-12 3 -7 3 19 0 57 -3 39 -7 90 -8 115 -1 25 -9 56 -19 70 -13 18 -14 26 -4
32 9 6 9 8 0 8 -7 0 -13 8 -13 17 0 28 -18 1 -22 -32 -5 -48 -20 -30 -23 27
-2 35 0 46 5 33 8 -18 9 -18 10 5 1 14 4 19 7 12 2 -6 9 -10 14 -6 5 3 4 14
-3 27 -6 12 -13 37 -15 56 -2 19 -8 40 -14 47 -7 8 -6 14 3 18 10 5 10 7 1 12
-7 3 -13 13 -13 21 0 9 -3 13 -7 10 -3 -4 -15 1 -26 10 -10 10 -21 17 -23 16
-4 -3 -84 68 -131 117 -42 43 -60 78 -103 198 l-33 93 -14 -29 c-12 -26 -21
-30 -64 -34 -27 -3 -58 -13 -68 -23 -17 -15 -22 -15 -40 -3 -11 8 -30 26 -41
41 -22 27 -54 36 -65 17 -11 -18 -45 9 -45 35 0 29 52 83 88 91 15 4 35 15 45
25 10 11 27 19 38 19 11 0 33 7 50 15 l30 16 -23 29 c-13 16 -27 29 -31 29 -5
1 -15 8 -23 16 -9 8 -24 15 -35 15 -23 0 -27 45 -4 54 8 3 15 14 15 24 0 27
-65 43 -99 26 -14 -7 -29 -10 -34 -7 -9 6 -2 13 37 38 10 6 18 32 21 68 8 70
-4 91 -47 82 -21 -5 -30 -2 -34 10 -8 20 13 37 38 31 10 -2 18 0 18 6 0 5 12
8 28 6 23 -3 27 0 25 20 -3 26 6 27 73 7 46 -13 51 -18 77 -74 19 -41 26 -67
21 -85 -4 -19 -2 -26 8 -26 8 0 19 -15 26 -32 21 -58 25 -60 62 -42 29 15 41
16 94 5 33 -7 78 -15 101 -17 22 -2 47 -6 55 -8 8 -2 30 -7 48 -11 20 -5 32
-14 32 -24 0 -14 2 -14 10 -1 6 10 10 11 10 3 0 -8 13 -13 30 -13 17 0 30 -5
30 -10 0 -6 6 -10 13 -8 6 1 32 -10 57 -24 34 -20 58 -27 97 -27 102 1 197
-39 418 -175 66 -40 121 -73 122 -72 1 1 -4 26 -12 56 -10 38 -23 61 -42 75
-53 38 -103 87 -97 96 3 5 -4 9 -15 9 -11 0 -23 5 -27 11 -3 6 -34 24 -68 41
l-61 30 78 -7 c89 -7 142 -24 110 -36 -20 -8 -14 -11 42 -24 27 -7 28 -8 10
-15 -18 -8 -17 -9 6 -9 20 -1 28 -8 33 -25 5 -19 11 -23 27 -19 12 4 25 0 30
-8 6 -10 9 -7 9 12 0 22 6 28 33 34 64 14 132 13 145 -1 8 -8 9 -14 2 -14 -6
0 -15 -11 -20 -25 -5 -14 -15 -25 -22 -25 -7 -1 -2 -7 12 -15 22 -12 23 -14 8
-20 -24 -9 -13 -25 16 -25 13 0 52 -9 87 -21 49 -16 78 -19 125 -15 34 4 73 2
87 -3 14 -5 28 -7 31 -4 3 4 17 7 30 8 19 0 24 -4 24 -20 -2 -45 2 -50 18 -27
8 12 19 20 24 17 9 -6 48 52 55 82 3 10 11 41 19 68 l15 50 0 -37 c1 -21 -10
-67 -24 -104 -29 -77 -29 -78 -12 -68 7 5 6 -2 -4 -16 -9 -14 -29 -31 -45 -39
-16 -8 -49 -29 -73 -48 -49 -37 -125 -63 -184 -63 -22 0 -38 3 -35 6 10 9 -85
89 -142 118 -30 16 -76 44 -102 62 -28 20 -48 29 -49 21 0 -6 -4 -2 -9 10 -13
33 -44 19 -35 -16 22 -96 106 -193 189 -221 33 -10 34 -12 32 -62 -1 -42 -6
-57 -28 -80 -15 -15 -32 -28 -37 -28 -6 0 -18 -11 -27 -25 -9 -14 -22 -25 -29
-25 -14 0 -37 -54 -28 -64 3 -3 0 -13 -8 -22 -10 -12 -13 -45 -12 -118 2 -131
10 -232 18 -246 4 -6 2 -17 -5 -25 -8 -9 -8 -15 0 -20 8 -5 8 -11 0 -20 -8
-10 -1 -12 35 -9 25 1 45 -1 45 -5 0 -5 11 -6 25 -3 14 2 25 9 25 14 0 14 81
48 117 48 18 0 58 10 90 22 32 12 81 22 108 22 82 0 145 -8 145 -18 0 -5 3 -6
7 -2 4 3 22 -8 40 -26 46 -44 44 -78 -3 -44 -14 11 -22 12 -32 3 -17 -14 -37
-18 -79 -18 -27 0 -33 -4 -35 -22 0 -12 -2 -26 -3 -32 -2 -5 -3 -18 -4 -28 0
-10 -5 -16 -9 -13 -15 9 -10 -28 5 -46 8 -9 44 -31 81 -49 202 -97 204 -100
122 -137 -27 -13 -50 -27 -50 -32 0 -6 -11 -10 -24 -10 -13 0 -29 -7 -36 -15
-7 -9 -15 -13 -18 -10 -3 2 -11 -3 -19 -13 -14 -16 -14 -16 -9 1 3 9 1 17 -4
17 -6 0 -10 -7 -10 -15 0 -8 -9 -15 -21 -15 -11 0 -18 -4 -15 -9 3 -4 -5 -6
-17 -4 -14 3 -44 -7 -75 -26 -29 -17 -54 -26 -57 -21 -4 6 -13 10 -21 10 -8 0
-12 -4 -9 -10 8 -12 8 -12 -33 -1 -26 8 -32 7 -32 -5 0 -13 -2 -13 -16 0 -8 9
-24 16 -34 16 -10 0 -22 5 -25 10 -4 6 -16 8 -27 4 -16 -5 -20 -3 -15 9 8 21
-39 29 -55 10 -15 -18 2 -30 55 -39 20 -4 37 -10 37 -15 0 -5 7 -6 15 -3 8 3
23 -1 35 -9 14 -10 33 -12 65 -7 25 4 45 4 45 0 0 -10 82 -32 106 -30 10 1 22
1 27 0 16 -5 28 -8 48 -9 18 -1 19 -3 9 -16 -10 -13 -9 -15 8 -15 15 0 20 5
16 15 -5 11 -2 13 10 9 22 -8 16 -38 -8 -42 -20 -4 -82 -43 -107 -67 -9 -8
-23 -15 -31 -15 -9 0 -18 -8 -21 -19 -4 -16 -12 -18 -53 -15 -27 1 -69 7 -94
13 -25 5 -58 13 -75 17 -16 4 -37 12 -45 19 -19 15 -64 32 -109 41 -19 3 -45
18 -58 32 -12 14 -23 21 -24 16 0 -5 -2 -17 -4 -26 -2 -10 5 -20 18 -24 27 -8
128 -105 121 -116 -3 -4 -1 -8 4 -8 5 0 15 -14 22 -30 l12 -30 415 0 416 0 -5
83 c-5 84 -22 129 -71 187 -12 14 -15 19 -7 12 21 -18 40 -15 40 7 0 11 10 28
23 38 12 10 23 27 25 38 2 11 9 25 16 30 21 17 39 75 61 195 24 130 35 175 45
178 6 2 10 12 10 22 0 9 11 44 25 76 43 99 47 106 68 100 11 -3 27 2 35 11 15
14 14 15 -4 9 -17 -5 -20 -2 -18 23 2 32 22 74 32 67 4 -2 7 14 8 35 1 22 6
50 12 62 6 12 25 68 43 124 17 57 35 100 40 98 4 -3 4 9 -2 27 -12 43 -11 45
4 25 10 -15 12 -11 12 27 0 27 -4 42 -10 39 -5 -2 -2 2 8 10 9 8 17 18 17 23
0 5 19 18 42 29 70 34 116 72 155 131 l37 56 18 -22 c10 -12 18 -28 18 -36 0
-7 42 -100 93 -206 52 -106 102 -210 112 -230 15 -33 22 -38 53 -38 53 0 158
20 177 34 16 11 15 16 -8 62 -13 27 -72 144 -131 261 -59 116 -105 217 -104
225 4 20 -60 22 -130 4 -33 -9 -63 -16 -66 -16 -24 0 43 155 70 163 11 3 46
11 79 17 33 6 227 50 432 96 205 46 375 84 378 84 3 0 5 30 5 66 0 58 -2 65
-18 60 -9 -3 -55 -14 -102 -25 -47 -10 -224 -52 -395 -92 -170 -40 -322 -72
-336 -71 -14 0 -75 17 -135 36 -60 19 -126 38 -147 42 -29 5 -36 10 -32 23 3
9 0 32 -5 51 -14 49 7 187 33 213 10 10 20 17 21 15 1 -2 8 -16 16 -33 l13
-30 8 35 c5 19 6 56 3 81 -4 29 -2 49 5 53 6 4 11 16 11 27 0 10 5 19 10 19 6
0 10 11 10 24 0 13 6 26 13 29 8 3 5 11 -10 26 -13 12 -23 30 -23 39 0 10 -7
28 -16 40 -14 20 -14 22 1 22 8 0 20 10 25 23 5 12 9 16 9 10 1 -15 31 -18 31
-4 0 5 -7 16 -15 24 -8 8 -11 17 -8 21 3 3 -5 10 -18 15 -62 26 -103 87 -74
111 23 19 18 57 -10 76 -14 9 -25 22 -25 30 0 7 -12 21 -26 31 l-27 17 29 9
c16 4 54 10 84 11 l55 4 38 67 c20 38 37 70 37 73 0 3 -55 2 -123 -2 -68 -4
-131 -4 -140 0 -21 8 -77 95 -77 120 0 10 -16 39 -35 63 -19 24 -35 54 -35 67
0 62 -66 158 -145 211 -69 46 -222 88 -336 92 -36 1 -79 4 -96 6 -17 2 -32 2
-34 0z m-767 -454 c8 11 9 11 6 1 -2 -8 -6 -12 -9 -10 -3 2 -12 -2 -20 -9 -8
-6 -52 -26 -99 -43 -90 -35 -141 -70 -99 -70 15 0 19 5 15 15 -3 8 -1 15 5 15
6 0 9 -8 7 -17 -2 -12 -15 -20 -38 -23 -37 -5 -58 -40 -25 -40 11 0 15 -5 11
-15 -3 -8 -1 -15 4 -15 6 0 10 4 10 8 0 4 9 8 20 8 25 0 27 -16 3 -17 -50 -4
-64 -7 -80 -20 -11 -9 -14 -10 -9 -1 4 6 4 12 -1 13 -4 0 -15 2 -24 4 -9 1
-23 -2 -30 -7 -11 -8 -10 -9 4 -4 9 3 17 1 17 -4 0 -6 -6 -10 -12 -10 -9 0 -8
-4 2 -10 9 -6 10 -10 3 -10 -6 0 -15 5 -18 10 -9 15 -28 12 -22 -4 3 -8 -5
-18 -19 -25 -33 -15 -33 -15 -27 12 3 13 1 17 -4 10 -8 -11 -27 -16 -50 -14
-6 0 -16 15 -22 32 -12 36 -3 54 32 65 12 3 58 23 102 44 110 51 237 101 263
103 12 1 22 4 22 8 0 12 40 18 40 6 0 -7 6 -3 12 8 8 14 13 16 16 6 4 -11 6
-11 14 0z m438 -81 c0 -5 -19 -14 -42 -20 -24 -6 -74 -22 -113 -36 -38 -14
-77 -26 -85 -28 -47 -12 -226 -89 -364 -158 -87 -43 -161 -77 -163 -74 -6 6
99 68 202 120 147 73 323 140 490 185 39 10 71 19 73 20 1 1 2 -3 2 -9z m-195
-129 c11 -14 14 -21 8 -17 -20 11 -15 -11 6 -31 10 -10 23 -27 29 -38 6 -11
12 -15 12 -8 0 7 7 10 16 6 11 -4 14 -13 9 -31 -5 -21 -3 -24 14 -19 12 3 24
1 27 -4 3 -5 -8 -12 -25 -15 -37 -8 -42 -25 -6 -18 14 2 25 0 25 -6 0 -5 21
-10 47 -10 25 0 44 -2 41 -5 -7 -7 -339 -81 -423 -94 -95 -15 -205 -20 -205
-9 0 5 -9 4 -20 -2 -15 -8 -21 -6 -30 10 -8 14 -17 19 -30 15 -10 -3 -21 -2
-24 3 -8 13 49 21 68 10 10 -6 16 -5 16 2 0 5 25 11 58 12 l57 2 -50 3 c-27 2
-57 6 -65 10 -17 7 -26 10 -39 12 -5 0 -7 10 -4 20 3 12 11 17 19 14 9 -3 14
0 12 8 -4 17 189 115 332 168 58 22 105 39 105 38 0 -1 9 -13 20 -26z m-592
-435 c-4 -6 1 -5 10 3 9 7 17 9 17 4 0 -6 14 -9 30 -7 17 2 30 -1 30 -7 0 -8
4 -8 13 -1 10 9 18 6 32 -10 18 -22 18 -22 26 -3 7 17 8 18 8 3 1 -10 9 -18
19 -18 79 0 291 -24 352 -39 469 -120 627 -175 689 -243 21 -22 15 -37 -21
-51 -10 -3 -18 -11 -18 -17 0 -26 -34 -41 -127 -56 -54 -8 -136 -21 -183 -28
-132 -21 -188 -34 -212 -50 -13 -8 -34 -17 -48 -21 -60 -16 -81 -31 -87 -57
-3 -15 -13 -29 -22 -31 -10 -3 -7 -5 8 -6 13 0 50 6 83 15 33 8 67 14 77 12 9
-2 -56 -19 -144 -38 -150 -33 -163 -35 -225 -23 -36 6 -153 23 -260 38 -225
30 -230 31 -230 51 0 8 4 13 9 10 5 -4 7 4 4 16 -4 22 -4 23 11 4 16 -19 16
-19 16 1 0 12 15 45 33 74 22 36 28 54 20 56 -7 3 -13 9 -13 15 0 6 6 6 15 -2
11 -9 18 -10 29 -1 18 15 27 49 15 57 -5 3 -9 11 -9 17 0 7 4 6 11 -3 8 -11 9
-5 4 23 -3 21 -9 46 -12 55 -4 15 -3 15 6 2 9 -12 10 -3 5 35 -10 76 -22 99
-20 38 1 -28 -2 -49 -6 -47 -5 3 -8 21 -8 40 0 19 -5 34 -11 34 -7 0 -9 -10
-5 -26 5 -17 3 -23 -4 -19 -5 3 -10 12 -10 20 0 8 -5 17 -10 20 -6 4 -9 1 -8
-7 4 -16 -51 -12 -79 5 -8 5 -13 4 -13 -2 0 -6 5 -11 11 -11 5 0 8 -4 5 -9 -3
-5 1 -14 10 -22 8 -7 20 -21 25 -31 9 -18 8 -18 -10 -8 -12 6 -26 8 -32 4 -6
-3 -19 2 -30 12 -16 15 -19 15 -19 2 0 -9 7 -18 15 -22 8 -3 15 -11 15 -17 0
-7 -10 -1 -23 12 -27 29 -59 40 -37 14 12 -15 10 -16 -16 -10 -19 4 -24 3 -16
-3 10 -7 9 -12 -4 -23 -12 -9 -15 -10 -10 -1 4 7 2 12 -7 12 -10 0 -13 -7 -10
-21 5 -19 4 -20 -16 -10 -16 9 -21 9 -21 0 0 -8 -5 -7 -17 2 -15 12 -16 12 -9
-6 9 -23 9 -24 7 -48 0 -10 -6 -15 -12 -12 -6 4 -8 13 -6 19 3 7 2 28 -3 47
-4 19 -8 25 -9 14 -1 -17 -3 -18 -12 -5 -7 11 -8 6 -3 -19 6 -31 5 -33 -8 -20
-8 8 -17 21 -20 29 -3 9 -10 -2 -17 -27 -6 -23 -16 -45 -22 -49 -6 -4 -8 -20
-5 -38 4 -22 3 -27 -4 -16 -8 13 -10 12 -10 -2 0 -10 -4 -18 -10 -18 -5 0 -11
-8 -11 -17 -1 -10 -5 -4 -9 12 l-7 30 -8 -32 c-4 -19 -14 -33 -22 -33 -13 0
-13 3 1 25 9 13 16 31 16 39 0 8 11 27 25 42 14 15 25 30 25 35 0 4 20 37 45
74 24 36 47 75 50 86 4 13 12 18 21 15 10 -4 16 4 21 24 3 16 9 27 14 25 4 -3
10 -1 14 5 4 6 11 8 16 5 5 -4 9 -1 9 5 0 7 7 10 15 6 9 -3 15 0 15 8 0 18 27
28 34 13 4 -7 4 -2 2 10 -4 24 12 35 57 38 42 4 43 4 66 24 12 11 33 18 46 16
14 -1 25 3 25 9 0 6 4 5 9 -2 7 -12 11 -11 22 1 10 11 19 12 36 4 12 -5 19
-15 16 -21z m1997 -787 c0 -5 -25 -23 -55 -40 -30 -17 -55 -33 -55 -36 0 -3
21 7 46 21 26 14 48 26 49 26 1 0 3 -12 3 -26 0 -18 -3 -22 -9 -13 -11 18 -27
2 -38 -39 -9 -30 0 -44 14 -22 8 13 25 13 25 0 0 -6 -20 -23 -45 -38 -35 -21
-45 -32 -44 -52 1 -21 2 -21 6 -5 8 31 23 42 23 17 0 -16 5 -20 18 -16 14 5
14 3 -2 -10 -11 -9 -25 -16 -31 -16 -6 0 -9 -16 -7 -40 5 -50 23 -48 36 3 7
26 17 39 36 45 14 5 43 26 64 46 22 20 44 36 51 36 7 0 18 20 24 45 13 52 26
61 16 13 -9 -46 -26 -88 -34 -84 -3 3 -18 -18 -33 -45 -16 -31 -20 -45 -11
-37 15 12 15 11 4 -10 -7 -12 -16 -20 -22 -17 -5 4 -8 1 -7 -7 2 -7 -2 -12 -8
-11 -6 1 -22 -10 -35 -25 l-24 -27 28 24 c15 14 27 20 27 14 0 -17 -78 -66
-91 -57 -8 5 -9 3 -4 -6 6 -10 3 -12 -13 -8 -12 3 -23 1 -25 -6 -7 -19 -26 67
-23 104 2 19 -1 44 -7 55 -9 19 -9 19 8 5 17 -14 18 -13 12 3 -3 9 -2 17 4 17
6 0 7 4 4 10 -3 5 -1 19 5 30 8 15 8 20 -2 18 -17 -4 -16 28 2 82 15 41 15 46
0 60 -9 8 -11 11 -4 7 7 -4 14 -3 16 3 3 11 87 30 101 23 4 -2 7 -8 7 -14z
m-586 -70 c34 -27 43 -45 67 -137 11 -42 30 -93 42 -112 12 -19 23 -39 24 -45
13 -52 14 -69 5 -88 -6 -12 -12 -29 -15 -38 -11 -33 -145 -86 -263 -104 -120
-18 -149 -15 -159 16 -12 36 5 71 63 133 59 62 90 124 141 286 21 66 45 110
60 110 5 0 20 -9 35 -21z"/>
<path d="M392 3525 c-29 -31 -52 -61 -52 -66 0 -14 67 17 108 51 44 36 77 39
86 8 11 -44 6 -67 -29 -112 -19 -26 -35 -54 -35 -64 0 -13 2 -14 9 -4 12 19
65 -9 88 -46 9 -15 18 -29 20 -31 5 -7 35 23 75 72 29 37 38 58 38 86 0 39 23
71 51 71 18 0 49 54 39 70 -5 8 -48 11 -151 9 -79 -1 -156 1 -170 5 -22 6 -33
0 -77 -49z"/>
<path d="M199 3536 c-2 -2 -42 -5 -89 -7 -47 -1 -91 -5 -97 -7 -21 -7 -17 -89
5 -101 10 -5 24 -21 32 -35 21 -40 46 -33 54 13 5 35 10 41 51 57 53 20 95 68
69 78 -19 7 -19 7 -25 2z"/>
<path d="M4199 3355 c-3 -2 -53 -5 -111 -6 -58 0 -110 -4 -117 -8 -15 -9 -81
-166 -81 -192 0 -18 3 -18 53 7 28 14 86 52 127 83 41 32 92 67 113 80 20 12
37 27 37 32 0 9 -13 12 -21 4z"/>
<path d="M4725 3088 c-38 -12 -133 -40 -210 -63 -77 -24 -151 -45 -165 -49
-47 -11 -52 -19 -34 -54 18 -37 20 -37 74 -16 28 11 55 15 86 10 36 -5 55 -1
95 19 55 28 69 26 69 -10 0 -13 6 -26 13 -28 7 -4 3 -8 -10 -12 -13 -4 -23
-11 -23 -15 0 -4 -8 -11 -17 -14 -10 -3 -27 -12 -38 -19 -24 -15 -154 -94
-202 -123 -48 -29 -72 -54 -53 -54 17 1 51 18 137 70 32 19 67 39 78 45 45 25
130 79 135 85 3 4 10 9 15 11 6 2 36 20 68 39 l57 35 0 82 c0 46 -1 82 -2 82
-2 -1 -34 -10 -73 -21z"/>
<path d="M4753 2784 c-18 -9 -33 -20 -33 -25 0 -5 -5 -9 -10 -9 -11 0 -144
-76 -285 -162 -148 -92 -291 -188 -277 -188 16 0 116 48 207 100 39 22 81 44
95 50 13 6 27 15 30 19 3 4 76 50 163 101 110 66 157 99 157 112 0 22 -6 22
-47 2z"/>
<path d="M1091 1999 c-30 -49 -36 -94 -17 -124 10 -15 16 -46 16 -82 1 -32 7
-71 15 -88 14 -29 15 -28 9 30 -8 86 -7 141 1 155 5 8 27 10 76 5 l68 -7 -15
45 c-19 55 -50 86 -97 94 -33 5 -38 2 -56 -28z"/>
<path d="M4685 1989 c-22 -5 -44 -14 -49 -19 -9 -9 -8 -302 3 -515 l6 -130 40
3 c22 2 57 8 78 13 l38 10 -2 325 -2 324 -36 -1 c-20 -1 -54 -5 -76 -10z"/>
<path d="M1250 1867 c0 -8 -13 -26 -30 -40 -29 -26 -30 -30 -30 -111 0 -100 6
-108 70 -93 l46 11 -1 70 c-1 71 -28 176 -46 176 -5 0 -9 -6 -9 -13z"/>
<path d="M3556 1366 c-21 -45 -20 -92 2 -124 10 -15 24 -42 31 -59 11 -28 19
-33 46 -33 47 0 59 19 35 58 -11 18 -31 59 -44 92 -13 32 -31 68 -39 80 -14
20 -15 20 -31 -14z"/>
<path d="M1402 1313 c-28 -5 -24 -21 23 -108 22 -39 39 -59 49 -57 9 2 18 -7
21 -21 4 -13 13 -24 20 -24 19 0 14 39 -17 137 -25 80 -33 86 -96 73z"/>
<path d="M4705 1141 c-71 -12 -67 7 -59 -309 6 -280 6 -287 -14 -305 -29 -26
-90 -19 -113 13 -17 22 -19 51 -21 277 -2 156 -7 256 -13 262 -13 13 -124 1
-325 -34 -172 -31 -283 -58 -255 -63 11 -2 36 -21 56 -43 33 -35 41 -39 86
-39 85 0 154 -28 182 -74 34 -56 34 -70 1 -83 -19 -7 -30 -18 -30 -30 0 -10
-8 -29 -17 -43 -9 -13 -18 -35 -19 -48 -2 -13 -6 -27 -9 -30 -4 -4 -39 -8 -79
-10 -89 -5 -130 12 -139 56 -4 18 -14 31 -26 35 -13 3 -23 19 -31 46 -9 36
-43 71 -57 58 -5 -5 16 -78 38 -134 12 -29 11 -35 -4 -50 -16 -16 -41 -18
-225 -18 -169 -1 -213 -4 -242 -17 -46 -21 -64 -10 -85 52 -9 27 -20 50 -25
50 -9 0 -20 -35 -20 -65 0 -32 52 -101 73 -97 16 3 18 0 12 -20 -4 -12 -14
-35 -22 -51 -16 -32 -19 -101 -5 -137 17 -45 14 -123 -7 -153 -10 -16 -17 -36
-15 -45 1 -10 6 -34 9 -54 6 -38 6 -38 54 -38 58 0 81 21 81 72 0 24 5 38 16
42 19 7 34 -1 34 -19 0 -17 59 -55 77 -48 20 8 15 61 -8 84 -20 20 -31 21 -85
4 -17 -5 -26 1 -44 30 -24 38 -24 43 -2 214 12 93 14 93 207 87 209 -7 259
-13 323 -39 l53 -21 205 18 c161 14 248 16 395 11 l189 -8 0 362 0 361 -27 -1
c-16 -1 -46 -4 -68 -8z"/>
<path d="M3615 953 c-88 -14 -170 -27 -183 -29 -12 -3 -27 -15 -32 -28 -5 -13
-13 -27 -18 -30 -6 -3 -13 -18 -17 -33 -3 -16 -16 -38 -27 -50 l-21 -22 29
-31 c37 -38 71 -40 85 -3 6 16 8 39 6 52 -7 35 11 77 39 95 33 22 205 30 249
12 17 -8 46 -31 63 -52 27 -32 32 -35 32 -18 0 12 8 32 19 45 30 39 35 68 14
85 -16 12 -16 15 -3 24 25 16 -60 10 -235 -17z"/>
<path d="M1360 391 c-30 -5 -37 -12 -48 -45 -23 -72 25 -337 63 -345 14 -2 16
1 11 15 -4 11 -15 45 -23 77 -16 57 -16 60 10 140 30 93 44 168 31 166 -5 -1
-25 -4 -44 -8z"/>
<path d="M4730 293 c-85 -9 -80 0 -80 -131 0 -167 -2 -162 81 -162 l69 0 0
150 c0 137 -2 150 -17 148 -10 0 -34 -3 -53 -5z"/>
<path d="M4490 256 c-3 -3 -37 -6 -75 -6 -76 -2 -340 -36 -356 -46 -6 -3 1
-17 16 -31 14 -14 25 -29 25 -34 0 -23 -15 -39 -37 -39 -21 0 -24 -3 -19 -23
4 -12 9 -34 12 -49 l7 -28 128 0 129 0 0 25 c0 20 5 25 25 25 14 0 25 -4 25
-10 0 -14 27 -13 36 1 4 7 8 19 9 28 10 88 19 122 31 117 8 -3 14 -1 14 4 0 6
9 19 21 31 11 11 19 25 17 30 -2 6 -6 8 -8 5z"/>
</g>
</svg>
